# xmcd
#
# Track frame offsets: 
#        150
#        16306
#        33097
#        48474
#        67262
#        86588
#        104435
#        126795
#        143681
#        160778
#        176414
#
# Disc length: 2591 seconds
#
# Revision: 0
# Processed by: cddbd v1.5.2PL0 Copyright (c) Steve Scherf et al.
# Submitted via: ExactAudioCopy v0.99pb4
#
DISCID=8c0a1d0b
DTITLE=No Justice - Live At Billy Bob's Texas
DYEAR=2007
DGENRE=Country
TTITLE0=Never Come Back
TTITLE1=By My Side
TTITLE2=Shakedown On 9th Street
TTITLE3=Red Dress
TTITLE4=Don't Walk Away
TTITLE5=Spinning Wheel
TTITLE6=Horseshoe Lake
TTITLE7=Bend But Don't Break
TTITLE8=Who I Want To Be
TTITLE9=Circles
TTITLE10=The Toast
EXTD=
EXTT0=
EXTT1=
EXTT2=
EXTT3=
EXTT4=
EXTT5=
EXTT6=
EXTT7=
EXTT8=
EXTT9=
EXTT10=
PLAYORDER=
